<svg version="1.2" baseProfile="tiny-ps" xmlns="http://www.w3.org/2000/svg" viewBox="0 0 22 14" width="22" height="14">
	<title>behance</title>
	<style>
		tspan { white-space:pre }
		.s0 { fill: #999999 } 
	</style>
	<path id="behance" class="s0" d="m2 1.03h5.21c2.11 0 3.54 0.73 3.54 2.74c0 1.06-0.54 1.8-1.51 2.25c1.35 0.38 2.03 1.39 2.03 2.74c0 2.19-1.91 3.13-3.91 3.13h-5.37v-10.86zm2.23 4.44h2.68c0.85 0 1.49-0.38 1.49-1.28c0-1.03-0.81-1.24-1.68-1.24h-2.49v2.53zm0 4.58h2.82c0.96 0 1.8-0.3 1.8-1.42c0-1.1-0.71-1.54-1.75-1.54h-2.86v2.96zm9.97-1.44c0.06 1.36 0.74 1.78 1.97 1.78c0.89 0 1.6-0.16 1.74-0.64h1.94c-0.62 1.85-1.94 2.26-3.76 2.26c-2.53 0-4.1-1.69-4.1-4.11c0-2.34 1.66-4.13 4.1-4.13c2.73 0 4.05 2.44 3.89 4.84h-5.79zm3.58-1.16c-0.2-1.09-0.68-2.07-1.75-2.07c-1.4 0-1.8 1.47-1.83 2.07h3.58zm0.92-4.26h-5.54v-1.1h5.54v1.1z" />
</svg>