<svg version="1.2" baseProfile="tiny-ps" xmlns="http://www.w3.org/2000/svg" viewBox="0 0 18 20" width="18" height="20">
	<title>google plus</title>
	<style>
		tspan { white-space:pre }
		.s0 { fill: #999999 } 
	</style>
	<path id="google plus" class="s0" d="m10.5 16.82c-2.11 1.86-8.54 1.61-8.54-1.84c0-3.46 4.83-3.51 5.23-3.51c0.39 0 0.46-0.11 0.13-0.46c-0.33-0.35-0.85-1.03-0.24-1.77c-1.09 0.04-4.09-0.55-4.09-3.31c0-2.76 2.9-3.94 3.94-3.94c1.05 0 4.2 0 5.2 0c0 0-0.24 0.2-0.78 0.5c-0.54 0.31-1.57 0.16-1.57 0.16c0 0 1.41 0.87 1.41 2.58c0 1.71-0.83 2.45-1.87 3.37c-1.05 0.92-0.44 1.47 1.2 2.63c1.63 1.16 2.09 3.73-0.02 5.59zm-3.07-8.26c-2.59 0-3.77-6.04-0.72-6.04c2.37-0.09 4.16 6.04 0.72 6.04zm-0.31 8.46c-2.15 0-3.31-1.07-3.31-2.67c0-1.6 1.57-2.39 4.51-2.39c0.8 0.61 2.22 1.36 2.22 2.85c0 1.49-1.27 2.21-3.42 2.21zm7.89-14.99v1.97h1.96v1.02h-1.96v1.97h-1.02v-1.97h-1.99v-1.02h1.99v-1.97h1.02z" />
</svg>