<svg version="1.2" baseProfile="tiny-ps" xmlns="http://www.w3.org/2000/svg" viewBox="0 0 19 18" width="19" height="18">
	<title>pinterest</title>
	<style>
		tspan { white-space:pre }
		.s0 { fill: #999999 } 
	</style>
	<path id="pinterest" class="s0" d="m17.99 9c0 4.41-3.58 7.98-8 7.98c-0.76 0-1.5-0.11-2.2-0.31c0.3-0.48 0.63-1.09 0.79-1.7c0.1-0.36 0.56-2.2 0.56-2.2c0.28 0.53 1.09 1 1.96 1c2.58 0 4.33-2.35 4.33-5.49c0-2.38-2.02-4.59-5.08-4.59c-3.81 0-5.74 2.73-5.74 5.01c0 1.38 0.52 2.6 1.64 3.06c0.18 0.08 0.35 0 0.4-0.2c0.04-0.14 0.12-0.5 0.16-0.64c0.05-0.2 0.03-0.27-0.12-0.45c-0.32-0.38-0.53-0.87-0.53-1.57c0-2.02 1.52-3.84 3.95-3.84c2.16 0 3.34 1.32 3.34 3.07c0 2.31-1.02 4.26-2.54 4.26c-0.84 0-1.47-0.69-1.27-1.54c0.24-1.02 0.71-2.11 0.71-2.84c0-0.66-0.35-1.2-1.08-1.2c-0.86 0-1.55 0.89-1.55 2.07c0 0.76 0.26 1.27 0.26 1.27c0 0-0.88 3.72-1.03 4.37c-0.14 0.6-0.16 1.27-0.14 1.82c-2.84-1.22-4.83-4.05-4.83-7.33c0-4.41 3.58-7.98 8-7.98c4.42 0 8 3.57 8 7.98z" />
</svg>