<svg version="1.2" baseProfile="tiny-ps" xmlns="http://www.w3.org/2000/svg" viewBox="0 0 19 16" width="19" height="16">
	<title>twitter</title>
	<style>
		tspan { white-space:pre }
		.s0 { fill: #999999 } 
	</style>
	<path id="twitter" class="s0" d="m15.96 4.27c0 0.02 0 0.03 0 0.05c0 0.01 0 0.03 0 0.04c0 0 0 0.01 0 0.02c0.22 5.31-3.91 9.62-9.24 9.62c-1.87 0-3.64-0.53-5.16-1.46c2.24 0.35 4.04-0.76 4.57-1.37c-1.49 0-2.84-1.27-2.95-2.24c0.3 0.05 0.99 0.1 1.37-0.1c-2.02-0.55-2.57-2.07-2.55-3.22c0.34 0.33 1.05 0.4 1.44 0.37c-1.14-0.7-2-2.62-1-4.35c1.63 2.12 4.52 3.35 6.99 3.42h0c-0.05-0.24-0.08-0.48-0.08-0.73c0-1.82 1.48-3.29 3.3-3.29c0.94 0 1.79 0.39 2.39 1.02c0 0 0 0 0 0c0.53 0 1.59-0.43 2.06-0.73c-0.18 0.68-0.89 1.53-1.38 1.79c0.75-0.07 1.56-0.37 1.83-0.52c-0.47 0.77-1.12 1.36-1.6 1.68z" />
</svg>